<svg width="120" height="41" viewBox="0 0 120 41" fill="none" xmlns="http://www.w3.org/2000/svg">
    <g clip-path="url(#clip0_11_19)">
        <path fill-rule="evenodd" clip-rule="evenodd" d="M19.4384 27.9775C19.6333 27.7669 19.8525 27.5827 20.0475 27.3458C22.3133 24.8978 23.8969 21.739 24.4572 18.1854C24.6034 17.2115 24.7009 16.2112 24.7009 15.2109C24.7009 14.8424 24.7009 14.5002 24.6765 14.158C24.4329 9.84107 22.7031 5.94528 20.0475 3.07609C19.8525 2.86551 19.6576 2.65492 19.4384 2.44434C18.7562 1.78627 18.0253 1.18084 17.2457 0.654386C16.7828 0.338512 16.1737 0.338512 15.6864 0.654386C14.9068 1.18084 14.1759 1.78627 13.4937 2.44434C13.2988 2.65492 13.0795 2.83918 12.8846 3.07609C10.6675 5.47147 9.08391 8.57757 8.49918 12.0522C8.74282 11.9206 9.01082 11.789 9.25445 11.6573C12.6653 9.99901 18.4395 9.49887 21.2413 12.4997C19.7307 11.9732 18.1227 11.71 16.4417 11.71C14.7606 11.71 13.1526 11.9995 11.6421 12.4997C10.4483 12.9208 9.30318 13.4736 8.23119 14.158C7.13483 14.8687 6.11157 15.7374 5.18576 16.7377C2.94432 19.1594 1.3607 22.3444 0.800336 25.898C0.654155 26.872 0.556702 27.8722 0.556702 28.8725C0.556702 28.9251 0.556702 28.9778 0.556702 29.0568C0.556702 29.6095 0.849063 30.1097 1.31197 30.3729C2.16469 30.873 3.06614 31.2679 3.99195 31.5838C5.50248 32.1102 7.11047 32.3734 8.79154 32.3734C10.8868 32.3734 12.8846 31.926 14.7362 31.1363C14.4926 30.952 14.249 30.7941 14.0053 30.6098C10.3508 27.8196 7.37847 23.45 8.45046 18.2117C9.03518 21.7653 10.6188 24.9241 12.8602 27.3721C13.0551 27.5827 13.2501 27.7933 13.4693 28.0038C14.3708 28.8725 15.3697 29.6622 16.4417 30.2939C18.7075 31.6364 21.3387 32.4261 24.1161 32.4261C25.7972 32.4261 27.4052 32.1365 28.9157 31.6364C29.8416 31.3205 30.743 30.8994 31.5957 30.4256C32.0586 30.1623 32.351 29.6622 32.351 29.0831C32.351 29.0304 32.351 28.9778 32.351 28.9251C32.351 27.8986 32.2779 26.9246 32.1074 25.9507C31.5226 22.3971 29.939 19.2383 27.6976 16.7903C27.259 16.3165 26.7718 15.8427 26.2845 15.4215C26.2358 20.5808 24.1649 25.898 19.4384 27.9775ZM21.4605 16.2638C21.2169 19.6332 19.8525 22.6866 17.7817 24.9504C17.3675 25.3979 16.9289 25.819 16.466 26.1876C16.0031 25.7927 15.5646 25.3979 15.1504 24.9504C13.0551 22.6866 11.6908 19.6595 11.4715 16.2638C13.0064 15.5531 14.7119 15.1583 16.4904 15.1583C18.2446 15.132 19.9256 15.5268 21.4605 16.2638Z" fill="#73C14F"/>
        <path fill-rule="evenodd" clip-rule="evenodd" d="M19.4385 27.9774C19.6334 27.7669 19.8527 27.5826 20.0476 27.372C22.3134 24.924 23.897 21.7652 24.4574 18.2116C24.4818 18.0537 24.5061 17.8695 24.5305 17.7115C24.0676 15.5794 22.8738 13.7368 21.2414 12.4996C19.7309 11.9731 18.1229 11.7099 16.4662 11.7099C14.9069 11.7099 13.3964 11.9468 11.959 12.4206C10.1073 13.7631 8.81608 15.7373 8.47499 18.2116C8.45063 18.2906 8.49935 18.1327 8.47499 18.2116C9.05971 21.7652 10.6433 24.924 12.8848 27.372C13.031 27.5299 13.2015 27.7142 13.372 27.8721C14.3466 28.3196 15.4186 28.5565 16.5393 28.5565C17.5626 28.5565 18.5371 28.346 19.4385 27.9774ZM15.1262 24.924C13.031 22.6602 11.6666 19.6331 11.4473 16.2374C12.9822 15.5267 14.6877 15.1319 16.4662 15.1319C18.2447 15.1319 19.9502 15.5267 21.4851 16.2374C21.2414 19.6068 19.8771 22.6602 17.8062 24.924C17.392 25.3715 16.9535 25.7926 16.4906 26.1612C15.9789 25.7926 15.5404 25.3715 15.1262 24.924Z" fill="#73C14F"/>
        <g opacity="0.6">
            <path opacity="0.6" fill-rule="evenodd" clip-rule="evenodd" d="M19.4385 27.9774C19.6334 27.7669 19.8527 27.5826 20.0476 27.372C22.3134 24.924 23.897 21.7652 24.4574 18.2116C24.4818 18.0537 24.5061 17.8695 24.5305 17.7115C24.0676 15.5794 22.8738 13.7368 21.2414 12.4996C19.7309 11.9731 18.1229 11.7099 16.4662 11.7099C14.9069 11.7099 13.3964 11.9468 11.959 12.4206C10.1073 13.7631 8.81608 15.7373 8.47499 18.2116C8.45063 18.2906 8.49935 18.1327 8.47499 18.2116C9.05971 21.7652 10.6433 24.924 12.8848 27.372C13.031 27.5299 13.2015 27.7142 13.372 27.8721C14.3466 28.3196 15.4186 28.5565 16.5393 28.5565C17.5626 28.5565 18.5371 28.346 19.4385 27.9774ZM15.1262 24.924C13.031 22.6602 11.6666 19.6331 11.4473 16.2374C12.9822 15.5267 14.6877 15.1319 16.4662 15.1319C18.2447 15.1319 19.9502 15.5267 21.4851 16.2374C21.2414 19.6068 19.8771 22.6602 17.8062 24.924C17.392 25.3715 16.9535 25.7926 16.4906 26.1612C15.9789 25.7926 15.5404 25.3715 15.1262 24.924Z" fill="#73C14F"/>
        </g>
        <path d="M78.5927 30.8953V10.0454H82.3697V19.6254H82.6242L90.7585 10.0454H95.3703L87.3073 19.4014L95.4416 30.8953H90.9011L84.6807 21.9567L82.3697 24.6851V30.8953H78.5927Z" fill="#73C14F"/>
        <path d="M52.8985 10.0454H57.5205L63.7103 25.1534H63.9546L70.1444 10.0454H74.7664V30.8953H71.1421V16.5712H70.9487L65.1865 30.8342H62.4784L56.7162 16.5406H56.5228V30.8953H52.8985V10.0454Z" fill="#73C14F"/>
        <path d="M34.3434 30.8953V10.0454H42.325C43.8318 10.0454 45.084 10.283 46.0817 10.7581C47.0862 11.2264 47.8361 11.8677 48.3316 12.6822C48.8338 13.4966 49.085 14.4197 49.085 15.4513C49.085 16.2997 48.9221 17.0259 48.5963 17.63C48.2705 18.2272 47.8327 18.7125 47.283 19.0858C46.7332 19.4591 46.119 19.7272 45.4403 19.8901V20.0937C46.1801 20.1344 46.8893 20.3618 47.568 20.7758C48.2535 21.183 48.8135 21.7599 49.2478 22.5065C49.6822 23.253 49.8994 24.1557 49.8994 25.2145C49.8994 26.2937 49.6381 27.2642 49.1155 28.1262C48.5929 28.9813 47.8056 29.6566 46.7536 30.1521C45.7016 30.6476 44.3781 30.8953 42.7832 30.8953H34.3434ZM38.1204 27.7393H42.1825C43.5535 27.7393 44.541 27.478 45.1451 26.9554C45.7559 26.426 46.0613 25.7473 46.0613 24.9193C46.0613 24.3016 45.9086 23.7451 45.6032 23.2497C45.2978 22.7474 44.8634 22.3538 44.3001 22.0687C43.7367 21.7769 43.0648 21.6309 42.2843 21.6309H38.1204V27.7393ZM38.1204 18.9127H41.8567C42.5083 18.9127 43.0954 18.7939 43.618 18.5564C44.1406 18.3121 44.5512 17.9693 44.8498 17.5282C45.1552 17.0802 45.308 16.5508 45.308 15.94C45.308 15.1323 45.0229 14.4672 44.4528 13.9446C43.8895 13.422 43.0513 13.1607 41.9382 13.1607H38.1204V18.9127Z" fill="#73C14F"/>
    </g>
    <defs>
        <clipPath id="clip0_11_19">
            <rect width="120" height="41" fill="white"/>
        </clipPath>
    </defs>
</svg>
